<?xml version="1.0" encoding="UTF-8"?>
<svg width="150px" height="150px" viewBox="0 0 150 150" version="1.1" xmlns="http://www.w3.org/2000/svg" xmlns:xlink="http://www.w3.org/1999/xlink">
    <!-- Generator: Sketch 45.2 (43514) - http://www.bohemiancoding.com/sketch -->
    <title>typo3-badge-netzlabor-150x150</title>
    <desc>Created with Sketch.</desc>
    <defs></defs>
    <g id="Page-1" stroke="none" stroke-width="1" fill="none" fill-rule="evenodd">
        <g id="typo3-badge-netzlabor-150x150">
            <g id="Page-1">
                <polygon id="Fill-1" fill="#FF6430" points="0 150 150 150 150 0 0 0"></polygon>
                <path d="M109.911103,125.866899 L125,125.866899 L125,57 L109.911103,57 L109.911103,125.866899 Z M85.9244047,73.1892788 C81.2840026,73.1892788 74.8990709,74.5436394 71.0293446,79.0924228 L71.0293446,74.5436394 L55.9381124,74.5436394 L55.9381124,126 L71.0293446,126 L71.0293446,93.9833835 C71.0293446,89.3435311 72.9630401,85.3761887 79.0560491,85.3761887 C84.8641417,85.3761887 86.410164,88.7620901 86.410164,93.7895699 L86.410164,126 L101.499061,126 L101.499061,87.9891705 C101.499061,80.2506345 98.1127583,73.1892788 85.9244047,73.1892788 L85.9244047,73.1892788 Z M33,125.864564 L48.6704067,125.864564 L48.6704067,109.614572 L33,109.614572 L33,125.864564 Z" id="Fill-2" fill="#FFFFFF"></path>
            </g>
        </g>
    </g>
</svg>